<?xml version="1.0" standalone="no"?>
<!DOCTYPE svg PUBLIC "-//W3C//DTD SVG 20010904//EN"
 "http://www.w3.org/TR/2001/REC-SVG-20010904/DTD/svg10.dtd">
<svg version="1.0" xmlns="http://www.w3.org/2000/svg"
 width="5703.000000pt" height="5703.000000pt" viewBox="0 0 5703.000000 5703.000000"
 preserveAspectRatio="xMidYMid meet">
<metadata>
Created by potrace 1.14, written by Peter Selinger 2001-2017
</metadata>
<g transform="translate(0.000000,5703.000000) scale(0.100000,-0.100000)"
fill="#000000" stroke="none">
<path d="M26850 56179 c-3598 -121 -7107 -927 -10370 -2382 -3627 -1617 -6883
-4011 -9524 -7001 -1887 -2138 -3432 -4545 -4583 -7141 -1771 -3994 -2566
-8362 -2328 -12775 285 -5270 2053 -10315 5118 -14605 110 -154 236 -327 279
-385 l79 -105 -223 -6 c-245 -7 -324 -18 -493 -74 -405 -132 -762 -454 -935
-843 -98 -220 -134 -391 -134 -647 0 -202 19 -329 75 -498 181 -543 656 -952
1216 -1047 113 -20 198 -20 5627 -20 l5513 0 12 -202 c55 -901 204 -1643 456
-2270 7 -17 -200 -18 -3917 -21 -4305 -3 -3961 2 -4253 -58 -647 -134 -1247
-532 -1628 -1081 -242 -349 -390 -728 -454 -1163 -24 -168 -24 -553 1 -720 85
-580 325 -1073 720 -1482 411 -426 909 -685 1516 -790 101 -17 837 -18 19105
-21 14107 -2 19028 0 19110 8 788 81 1490 506 1937 1170 107 159 240 425 298
595 264 771 172 1602 -253 2290 -137 221 -378 493 -582 658 -326 263 -728 455
-1120 536 -292 60 60 55 -4357 61 l-4027 5 55 125 c332 757 531 1716 604 2900
33 541 42 1621 21 2465 -6 220 -14 523 -17 673 l-7 272 3492 0 3492 0 -6 -42
c-3 -24 -55 -592 -116 -1263 -98 -1084 -110 -1237 -106 -1370 5 -178 28 -271
106 -430 266 -541 928 -766 1466 -497 165 82 8758 4800 8833 4850 240 157 405
413 463 712 19 103 15 319 -9 426 -57 254 -203 486 -397 633 -34 25 -760 503
-1614 1061 -1105 723 -1550 1019 -1547 1030 2 8 63 159 134 335 1513 3739
2184 7857 1952 11970 -292 5151 -2012 10108 -4975 14330 -2885 4112 -6820
7368 -11390 9422 -3135 1410 -6515 2220 -9980 2393 -602 30 -1743 39 -2335 19z
m1800 -1789 c358 -13 619 -26 970 -51 4311 -298 8456 -1663 12110 -3987 2406
-1531 4580 -3483 6371 -5722 2893 -3616 4762 -7925 5418 -12495 252 -1755 326
-3583 216 -5350 -139 -2222 -550 -4370 -1241 -6488 -180 -549 -566 -1594 -589
-1591 -4 1 -732 476 -1618 1056 -887 581 -1639 1069 -1672 1086 -159 79 -348
117 -535 108 -480 -23 -888 -352 -1010 -814 -16 -59 -72 -639 -240 -2486 -121
-1326 -220 -2418 -220 -2428 0 -17 -34 -18 -740 -18 -407 0 -740 2 -740 4 0 2
20 54 44 114 142 352 223 744 267 1287 19 245 22 980 5 1630 -9 341 -16 737
-16 880 0 399 -22 704 -76 1055 -108 703 -348 1403 -692 2020 -406 728 -948
1350 -1602 1841 -732 549 -1615 916 -2500 1038 -294 41 -379 46 -760 46 -393
0 -482 -6 -795 -51 -1013 -148 -1975 -594 -2785 -1290 -119 -102 -394 -371
-494 -483 l-58 -64 -91 90 c-269 264 -684 615 -1042 884 -1678 1260 -3623
2015 -5670 2203 -371 34 -531 41 -1015 41 -484 0 -652 -7 -1020 -41 -2312
-211 -4501 -1154 -6305 -2718 -223 -193 -530 -482 -709 -668 l-151 -156 -80
45 c-127 72 -457 235 -611 302 -1534 662 -3286 707 -4842 125 -1897 -710
-3394 -2259 -4097 -4239 -287 -808 -425 -1639 -425 -2560 0 -333 -14 -697 -55
-1490 -50 -949 -61 -1341 -46 -1710 19 -495 60 -817 147 -1155 21 -82 106
-341 128 -392 8 -17 -43 -18 -982 -18 l-991 0 -74 88 c-98 116 -405 500 -549
687 -3208 4169 -5056 9133 -5352 14385 -54 940 -54 1994 0 2940 316 5629 2430
10947 6069 15270 746 886 1640 1809 2530 2611 2103 1893 4562 3459 7190 4579
2913 1241 6046 1935 9255 2049 329 12 1451 12 1770 1z"/>
<path d="M27545 52503 c-70 -10 -225 -54 -294 -83 -404 -167 -696 -534 -766
-963 -21 -126 -72 -4178 -55 -4327 66 -575 510 -1032 1079 -1110 47 -6 268
-12 529 -13 404 -2 455 0 532 17 257 56 465 169 645 350 148 149 242 301 304
490 65 198 60 56 88 2346 21 1698 24 2114 14 2194 -59 478 -398 889 -856 1040
-174 57 -192 58 -710 61 -264 2 -493 1 -510 -2z"/>
<path d="M12335 46415 c-224 -41 -413 -126 -578 -258 -37 -30 -197 -182 -355
-338 -318 -313 -384 -396 -464 -581 -192 -447 -116 -978 191 -1332 23 -26 685
-707 1471 -1511 1054 -1078 1453 -1481 1517 -1529 152 -114 347 -197 540 -231
110 -19 326 -19 436 0 177 31 346 100 501 204 74 50 497 448 658 619 167 178
282 412 323 662 25 149 17 366 -20 510 -46 178 -130 350 -234 479 -48 61
-2731 2812 -2899 2973 -184 178 -405 289 -659 333 -104 18 -330 18 -428 0z"/>
<path d="M43232 46059 c-211 -27 -445 -125 -607 -255 -50 -39 -2552 -2475
-2954 -2875 -183 -182 -299 -397 -352 -652 -27 -128 -29 -340 -6 -472 34 -188
118 -386 227 -530 86 -114 604 -641 703 -716 117 -87 295 -172 442 -211 113
-29 131 -31 305 -32 197 -1 277 10 418 58 156 54 308 141 426 245 100 89 2959
2886 2992 2927 148 188 241 405 275 643 23 163 1 397 -53 561 -77 235 -154
343 -494 692 -308 316 -343 348 -464 427 -242 158 -561 229 -858 190z"/>
<path d="M27440 40354 c-25 -2 -108 -8 -185 -14 -2397 -183 -4530 -1711 -5494
-3936 -241 -557 -408 -1170 -486 -1779 -61 -481 -64 -1086 -9 -1570 118 -1041
472 -2011 1052 -2888 341 -516 768 -994 1247 -1397 977 -820 2167 -1338 3425
-1490 293 -35 458 -44 800 -44 342 0 508 9 800 45 1288 155 2486 685 3495
1548 167 143 585 567 729 740 803 965 1300 2075 1475 3296 49 346 56 458 56
935 -1 361 -4 489 -18 620 -89 851 -293 1562 -657 2295 -140 282 -237 452
-405 705 -872 1315 -2174 2268 -3685 2695 -389 110 -749 177 -1195 221 -140
14 -833 27 -945 18z"/>
<path d="M16020 31930 c-1184 -112 -2229 -734 -2887 -1720 -659 -988 -821
-2249 -437 -3389 259 -766 760 -1433 1440 -1919 433 -309 978 -538 1514 -636
263 -48 405 -60 710 -60 286 0 435 11 660 50 1517 263 2731 1393 3100 2888
115 467 142 1001 74 1476 -222 1547 -1353 2811 -2863 3201 -136 35 -335 73
-503 95 -144 19 -659 28 -808 14z"/>
<path d="M39525 31920 c-648 -54 -1249 -290 -1755 -690 -135 -106 -422 -395
-526 -530 -365 -471 -582 -991 -661 -1585 -21 -165 -24 -599 -5 -760 133
-1096 782 -2024 1757 -2512 346 -174 723 -283 1120 -324 162 -16 514 -14 680
6 736 85 1396 406 1917 932 269 271 449 526 613 866 147 306 232 582 285 932
31 199 38 581 16 795 -78 735 -399 1412 -916 1930 -517 518 -1175 840 -1896
925 -161 19 -483 27 -629 15z"/>
<path d="M5433 30935 c-390 -72 -720 -318 -901 -672 -75 -147 -113 -278 -132
-448 -16 -149 -13 -876 5 -978 80 -459 403 -833 847 -982 198 -66 111 -63
2378 -89 1136 -13 2081 -22 2100 -20 201 25 324 60 474 137 356 182 602 517
671 914 21 119 33 870 16 998 -28 214 -119 441 -239 601 -196 260 -489 440
-805 494 -92 16 -241 19 -2092 40 -1947 23 -2220 23 -2322 5z"/>
<path d="M45805 30473 c-563 -73 -1001 -488 -1101 -1043 -15 -80 -17 -169 -18
-570 l-1 -475 32 -118 c61 -227 172 -418 337 -582 185 -184 381 -289 648 -346
89 -19 187 -21 2048 -45 2047 -26 2319 -26 2433 0 507 117 884 505 983 1011
25 124 32 944 10 1071 -46 269 -161 489 -356 684 -152 152 -308 249 -498 310
-191 62 -85 58 -2257 85 -1958 24 -2199 26 -2260 18z"/>
</g>
</svg>
